<svg version="1" xmlns="http://www.w3.org/2000/svg" width="2730.667" height="2730.667" viewBox="0 0 2048.000000 2048.000000"><path d="M950 83.1c-267.6 11.8-507.1 78.7-671.9 187.7-36.8 24.3-65.8 47.7-95.2 77.1-48.4 48.3-78 94.4-95.3 148.1-7.4 22.8-12.6 52-12.6 70v7.5l2.1-4.2c2.9-5.8 13.9-15.8 23.9-21.7 83.8-49.3 356.6-87.8 706-99.6 24.3-.8 107.4-3 115.3-3 1.6 0 1.7 36.1 1.7 744v744h200v-744c0-707.9.1-744 1.8-744 22.7.1 129.3 3.3 179.7 5.5 342.1 14.9 601.3 57.4 655.7 107.4 7.3 6.7 9.9 10.3 11.5 16 1.2 4.1 1.3 2.3.9-14.9-.4-16.8-.8-21.5-3.5-34-10.5-50.5-34.7-98.5-73-144.9-12.8-15.5-45.3-48.1-62.1-62.3-153.8-129.6-410.2-215.1-698.5-232.8-49.1-3-140.8-3.9-186.5-1.9z"/></svg>